<svg xmlns="http://www.w3.org/2000/svg" viewBox="0 0 442.55 579.89"><defs><style>.cls-1{fill:#1d1d1b;}.cls-2{fill:#fcbf00;}.cls-3{fill:#fff;}</style></defs><g id="Layer_2" data-name="Layer 2"><g id="Layer_1-2" data-name="Layer 1"><path class="cls-1" d="M104.41,371.32c-5.9,22.11-10.94,43.42-13.82,65.88a307.85,307.85,0,0,0-2.38,48.24c.65,23.47,4.82,68.69,22.68,86.47,8.35,8.28,20.52,9.58,42.41,6.34,54.5-8.06,72.57-15.7,119-38.88,59.84-29.88,110.74-74.59,141.92-135.86l5.61,3.74c6.12,4,12.1,1.66,15.63-12.38,16.77-67.61,4.75-150.92-46.73-201,4.82-50.47,9.93-109.51,2-185.61C390,0,380.6-1.85,375.06,1.75,342.51,26.3,309.47,48.69,274.19,48.83,247,43.15,212.41,44.8,190.38,64,173.67,78.43,179.72,111,201.9,115.07c26.49,4.83,70.77-22,77.18-41.61,23.91-2.38,54.29-10.37,74.67-29.23,1.87-1.73,3.16-2.74,2.95,1.08-2.88,55.94-11,88.84-20,112.53A176.1,176.1,0,0,0,299,147.33c-.15-8.57-1.23-13.68-11.88-15.19l-30.46-2.31c-11.52-1.72-15-.86-24.12,4.18-10,5.47-18.43,13.18-25.63,22.32-8.86,3.38-14.91,5.9-22.47,10.73C172.88,134.15,154,96.35,132.63,70.65c-3.74-4.46-11.52-7.42-16.34-3.1-14.47,12.82-42,39-62.35,41.62-14.62,1.94-33.55,7-44.86,17.42-18.57,17-7.13,49.83,20.45,43.78,16.06-3.46,29.23-21.6,35.86-36,18.21-9.65,34.63-21.46,51.76-37.15,20.6,25.13,24.34,80.28,26.79,110.23a127.63,127.63,0,0,0-11.88,21.46c-15.55,2.8-30.46,8.35-42.63,18.72C71,263.18,63,286.51,72.23,313.15c3.81,11,10.22,20.52,16.2,30.45C95.55,355.34,104.63,370.53,104.41,371.32Z"/><path class="cls-2" d="M131.7,568.31c-24.48-31.32,6.55-125.64,18.14-157.6,7.78-18.8,17.14-42.34,25.42-60.41,7.13-15.84,14.54-31.47,21.67-47.31,80.57-8.42,150.62,34.85,203.33,84.46-14.69,33.41-33.55,62.21-76.83,100.44,6.2-11.09,9.72-28.3,10.95-47.38l14.69,2.16c-12.39-19.51-20.6-26.49-28.44-34.92-10.44,48.89-66.24,114.34-106.28,141.84-24.91,9.22-51.91,18.36-73.65,18.8C138.9,568.46,133.21,568.39,131.7,568.31Z"/><path class="cls-3" d="M131.63,369.16h13.89L131,375a170.38,170.38,0,0,0-.36,24.84c-8.21,2-13.47,3-21.53,4.4-1.3-29.16,18.65-76,37.58-77.48C138.32,338,133.71,353.47,131.63,369.16Z"/><path class="cls-1" d="M192.39,363.62c7.42-22,25.06-50.11,52.92-49A31.3,31.3,0,0,1,268.5,326c19,23.48,14,88.64-21.1,113.33,4.61,1,9.15,1.8,13.54,2.38l-8.21,12.89c-23.11-7.06-46.15-17.57-64.8-33.27a165.91,165.91,0,0,1-1.73-20,114.37,114.37,0,0,1,6.19-37.73Z"/><path class="cls-3" d="M197.15,420.14a155.22,155.22,0,0,0,32.9,14.61c6.26-4.39,12.17-11.73,17-20.88-8.21,6.12-17.06,9.58-25.27,9.29-6.12-12.31-7.78-29-4.1-47.59L248,365.85l-28.51,2.23a125.57,125.57,0,0,1,19.44-40.89c-19.44-3.75-33.41,23.11-39.82,43C194.05,385.94,192.18,404.08,197.15,420.14Z"/><path class="cls-2" d="M116.58,74.9c-12.89,16-51.48,40.68-65.09,42.05-20.09,3.52-27.65,7.84-33.91,12.24-15.48,11-9.15,36.28,8.13,33.48C41,160.22,55.45,142,62.58,126.16c21-9.65,35.71-21.17,52.7-35.64,2.31-2,4.18-1.51,6.12.79,18.43,21.68,26.5,71.57,31.47,105.27,5.4-6.34,17.13-20.38,23.68-25.49,2.09-.43-18.79-50.4-35.49-78.34-1.51-2.59-6-10.44-11-15.69-4.46-4.54-9.5-7.13-13.46-2.16Z"/><path class="cls-2" d="M271.52,65.32c1.15,19.51-34.77,39.24-58.17,41.83-24.27,2.67-32.76-24.76-17.36-38.73C208.88,56.68,250.5,47.54,271.23,56c33.48.43,75-23.18,104.48-47.88,3.24-2.73,9.28-.21,9.72,4C392,83,384.27,172,371,235.67,369.3,243.38,359,247.91,353,248.2c-18.58.94-31.76-10.15-25.35-28.51,25-71.64,36.36-114.12,38.45-188.86.07-2.95-2.81-4-4.1-2.88-21.46,19.16-53.14,39.68-90.51,37.37Z"/><path class="cls-2" d="M164.67,353.61c.44-.86.87-1.73,1.23-2.59,7.7-16,15.84-31.61,24.41-47.16-14,2.23-27.15,6.62-38.88,13.82a10.22,10.22,0,0,1,3,.65c8.93,3.24,12.53,17.42,10.22,35.28Z"/><path class="cls-2" d="M103.91,417.11c-5.12,22.68-7.92,47.67-6.2,73.37.72,11.81,4.83,54.22,15.7,70h0c-12.82-46.73,12-109.08,29.09-155a341.78,341.78,0,0,1-38.59,11.66Z"/><path class="cls-3" d="M32.19,131c-6.76-2.16-17.64,7.34-18,14a3.83,3.83,0,0,0,2.74,4.24c6.77,2.16,17.64-7.41,18-14,.07-2.08-.79-3.67-2.74-4.24Zm318.1,102.52c17.21-43.2,28.51-101.59,30.6-151.27.22-4.75,3.24-3.74,3.38-.29,2.38,46.66-8.2,108.94-14.76,142.64-.64,3.74-2.37,11.95-4.24,14.11-8.14,9.5-19.23,5.54-15-5.19ZM232.86,61.79c-9.29-2.73-33.41,4.76-35.28,15.56-.43,2.59,1.08,4.75,4.61,5.76,9.28,2.73,33.4-4.68,35.28-15.56.43-2.59-1.08-4.75-4.61-5.76Zm17.13,472c22.54-15.12,64.16-72.36,69.7-90.51,4.82,23-9.29,54.65-25.7,69.12-7.28,6.12-30,19.59-43.92,24.27l-.08-2.88Zm-9.43-300.6c42.48,17.42,87,52.12,125.07,87.48,1.08,1.08,4.6,4.1,2.66,5.61-2.52,2-4.25-.5-6.05-2a813.05,813.05,0,0,0-86.61-60.12c-48.17-26.43-59.12-28-96-26.43-32.26.87-55.8,2.59-68.62,8.86-31.17,15.19-40.89,41-25.27,72.07l17.71,35.14c8.5-31.4,31-50.91,59.62-60.63,30.46-10.29,67.9-9.65,103.1-.57a241.17,241.17,0,0,1,56.16,23c25.13,14,48.53,31.54,70.35,49.61l27.79,23c4.46-11.52,6.05-26.49,6.77-33.05,3.38-32.54.86-67.1-10-97.34-6.12-16.92-14-32.83-30.82-50.4-.72,11.45-3.6,31.82-10,40.39-18.08,24-71.21,8.07-60.12-29.45,5-16.77,12.24-33.26,16.7-49.89a159.81,159.81,0,0,0-60-11.67c-19.58,14-30.52,54.29-32.47,76.4Zm-19.15-6.56c-11.95-2.73-20.16-3-32.18-2.95A151.1,151.1,0,0,1,209,168.64H209a103,103,0,0,1,13-17.21h0c7.34-7.63,15.48-13.17,24-15.33L283,137.9c-8.57,1.08-16.49,5.33-23.69,11.66-.07.07-.14.15-.21.15-19.23,17-33,49-37.66,77Zm-76.39.22c11.23-22.68,27.79-40.25,50.25-52-7.56,15-12.45,32-14.83,49.17-11.88.58-23.69,1.37-35.42,2.81ZM143.79,97.43c16.13,28.44,34.78,73.23,32.76,73.66a53.55,53.55,0,0,0-4.6,4.18c-2.81-.15-3.17-4.47-4-8-4.76-20.73-16.71-52.48-23.84-66.52C143.36,99.16,143.22,97.51,143.79,97.43Z"/></g></g></svg>