<svg xmlns="http://www.w3.org/2000/svg" viewBox="0 0 73.22 147.83"><defs><style>.cls-1{fill:#004996;}.cls-2{fill:#fff;}.cls-3{fill:#fcbf00;}</style></defs><g id="Layer_2" data-name="Layer 2"><g id="Layer_1-2" data-name="Layer 1"><rect class="cls-1" width="73.22" height="147.83"/><path class="cls-2" d="M64.73,118.8H62.06l1-3.31a2.19,2.19,0,0,1,.15-.43,7.51,7.51,0,0,0,.21-.94c.15.79.29,1.22.29,1.37l1,3.31Zm-48,3.82-1.51-10.16H12.53L11,117.65c-.08.21-.08.43-.15.65s-.07.5-.14.72c-.07-.29-.07-.51-.15-.8a1.59,1.59,0,0,1-.14-.57l-1.51-5.19H6.26L4.75,122.62H7.27l.58-4.4c0-.36.07-.64.07-1.08A6.34,6.34,0,0,1,8.06,116c.08.43.15.79.22,1.08a3.53,3.53,0,0,0,.22.72l1.36,4.83h1.73L13,117.79a6,6,0,0,0,.22-.72q.1-.43.21-1.08c.07.43.07.79.15,1.15a4.91,4.91,0,0,1,.07,1.08l.57,4.4Zm5.84-6.56c0,.44-.08.72-.36.87a2.19,2.19,0,0,1-1.3.29h-.5v-2.6H21a3.76,3.76,0,0,1,.94.15,1,1,0,0,1,.5.43,1.5,1.5,0,0,1,.15.86Zm3.16,6.56L23,118.51a2.78,2.78,0,0,0,2.16-2.88,2.82,2.82,0,0,0-.29-1.37,2.36,2.36,0,0,0-.79-1.08,3.86,3.86,0,0,0-.94-.5,4.38,4.38,0,0,0-1.08-.14,5.52,5.52,0,0,0-1.22-.08h-3v10.16h2.52v-4l2.3,4Zm7.85-5.12a6.35,6.35,0,0,1-.14,1.23,2.44,2.44,0,0,1-.58.93,3.08,3.08,0,0,1-.79.65,2.15,2.15,0,0,1-1,.22,2.46,2.46,0,0,1-1.94-.87,4,4,0,0,1-.51-.93,6.35,6.35,0,0,1-.14-1.23,4.92,4.92,0,0,1,.14-1.08,4.26,4.26,0,0,1,.58-.93,2.16,2.16,0,0,1,.79-.65,2.52,2.52,0,0,1,1.08-.22,2.28,2.28,0,0,1,1,.22,2.16,2.16,0,0,1,.79.65,4.26,4.26,0,0,1,.58.93A5.6,5.6,0,0,1,33.58,117.5Zm2.74,0a3.76,3.76,0,0,0-.22-1.29,5.14,5.14,0,0,0-.5-1.3,6.06,6.06,0,0,0-.87-1.08,3,3,0,0,0-1.08-.86,4.24,4.24,0,0,0-1.29-.51,4.11,4.11,0,0,0-1.3-.21,4.55,4.55,0,0,0-1.37.21,5,5,0,0,0-1.29.51,3.9,3.9,0,0,0-1.08.86,5.45,5.45,0,0,0-1.15,1.73,4.51,4.51,0,0,0-.44,1.94,5.7,5.7,0,0,0,.22,1.59,4.66,4.66,0,0,0,.65,1.37,4.08,4.08,0,0,0,1.08,1.15,5.08,5.08,0,0,0,1,.72,7.67,7.67,0,0,0,1.15.36,3.35,3.35,0,0,0,1.22.14,4.06,4.06,0,0,0,1.3-.14,7.21,7.21,0,0,0,1.29-.51,5.91,5.91,0,0,0,1.08-.86,4.47,4.47,0,0,0,.87-1.15,3.67,3.67,0,0,0,.5-1.23,4.38,4.38,0,0,0,.22-1.44Zm-3-8.5H31l-1.22,2.37h1.73l1.8-2.37Zm16.2,3.45-2.81,10.16H44.28l-1.22-4.4a8,8,0,0,1-.36-1.36c-.08.28-.08.5-.15.79a2.16,2.16,0,0,0-.14.57l-1.23,4.4H38.66l-2.73-10.16h2.66l1.15,4.83a2.63,2.63,0,0,1,.15.79,2.49,2.49,0,0,1,.14.72c.07-.29.15-.5.22-.79a2.49,2.49,0,0,1,.14-.72l1.23-4.83h2.16l1.29,4.83a6.86,6.86,0,0,0,.22,1,2,2,0,0,1,.07.43,3.67,3.67,0,0,0,.14-.87,1.85,1.85,0,0,0,.15-.57l1.15-4.83Zm9,9.44-3.39-4.54,3.67-4.9H55.66l-3.1,4.61v-4.61H49.9v10.16h2.66V118l3.24,4.61H61l.51-1.88H65.3l.51,1.88h2.66l-3.38-10.16H61.7Z"/><path class="cls-3" d="M0,103.68a60.74,60.74,0,0,1,37.66-21c11.8-1.66,25.12.57,34.84,7.85A43.39,43.39,0,0,0,32.9,75.24C20.16,76.82,9.36,82.22,0,91.37Z"/><path class="cls-2" d="M17.14,25V58.61a.87.87,0,0,0,.86.5,1,1,0,0,0,1.08-.92V25.49a1,1,0,0,0-1-1H18a1,1,0,0,0-.86.5ZM12.31,14.62H10.73v.79h.72v1.08c0,.43-.15.72-.58.72s-.65-.29-.65-.72V13.32a.61.61,0,0,1,.57-.65h.08c.43-.07.58.29.58.65v.29h.86v-.29A1.43,1.43,0,0,0,11,11.75h-.17a1.49,1.49,0,0,0-1.51,1.47v3.28a1.93,1.93,0,0,0,.22,1.08,1.67,1.67,0,0,0,1.29.57,1.44,1.44,0,0,0,1.3-.72,2,2,0,0,0,.14-.93Zm4.75.79h.58l.86,2.66h.94l-.94-2.88a1.42,1.42,0,0,0,.72-1.29v-.58a1.46,1.46,0,0,0-1.41-1.51H16.2v6.26h.86Zm0-.79v-2h.65a.65.65,0,0,1,.65.67v.63c0,.43-.22.72-.65.72Zm9-2.81h-.93v4.82a.53.53,0,0,1-.47.58h-.11c-.36.07-.57-.22-.57-.58V11.81H23v4.82a1.51,1.51,0,0,0,3,0V11.81Zm4.83,3.81h.5a1.48,1.48,0,0,0,1.52-1.44,1.09,1.09,0,0,0,0-.18v-.86a1.43,1.43,0,0,0-1.44-1.37H30V18h.87V15.62Zm0-.86V12.6h.57a.58.58,0,0,1,.58.6v.91c0,.51-.14.65-.65.65Zm6.26,1.94H38.3l.29,1.37h.94l-1.37-6.26h-.79l-1.44,6.26h1l.21-1.37Zm1-.79H37.3l.43-2.3.43,2.3ZM55.3,58.39V24.77a1,1,0,0,1,.86-.51,1,1,0,0,1,1.08.92V57.89a1,1,0,0,1-1,1h-.08a1,1,0,0,1-.86-.51Zm3.6,3.89a5.94,5.94,0,0,0,5.9-6v-29a6,6,0,0,0-5.9-6H55.3V11.74H47.52V62.28ZM34.42,21.17h5.32a5.93,5.93,0,0,1,5.91,5.9v8.71H38.09V25.49a1,1,0,0,0-1-1H37a1,1,0,0,0-1,1v8.85c0,.08.07.15.14.22l8.79,9.36a2.85,2.85,0,0,1,.72,1.8V56.09a6,6,0,0,1-5.91,6H34.42a6,6,0,0,1-5.91-6V47.66H36V58.1c0,.87,1,1,1,1a1,1,0,0,0,1.08-.92V48.67a.44.44,0,0,0-.22-.43L28.94,38a1.6,1.6,0,0,1-.43-1.23v-9.7A5.93,5.93,0,0,1,34.42,21.17Zm-13.68,0a5.92,5.92,0,0,1,5.83,5.9v29a5.93,5.93,0,0,1-5.83,6h-3.6v9.58H9.36V21.17Z"/><rect class="cls-2" x="19.92" y="127.21" width="1.36" height="1.36"/><path class="cls-2" d="M5,139.71v-10H7.77v10Z"/><path class="cls-2" d="M10.1,139.71v-3.5l-.83.58-.83-1.27,1.66-1.18v-4.63h2.14v3.35l1.41-1,.84,1.28-2.25,1.57v3h3.41v1.81Z"/><path class="cls-2" d="M24.49,139.71H15.65l5-7.84H16.64v-2.16h8.43l-5,7.82h4.46Z"/><path class="cls-2" d="M24.51,139.71l3.45-10h3.42l3.46,10H32.12l-.5-1.79H27.74l-.52,1.79ZM28.33,136H31l-1-3.31c0-.06-.06-.22-.13-.49s-.14-.6-.21-.85c-.06.23-.12.46-.16.7s-.14.44-.19.64Z"/></g></g></svg>
