<svg width="70" height="126" viewBox="0 0 70 126" fill="none" xmlns="http://www.w3.org/2000/svg">
<path d="M70 0H0V125.63H70V0Z" fill="#004996"/>
<path d="M61.8833 111.746H59.3307L60.2868 108.633C60.3202 108.493 60.3683 108.358 60.4302 108.228C60.5189 107.939 60.586 107.643 60.6309 107.344C60.7743 108.087 60.9082 108.492 60.9082 108.633L61.8642 111.746H61.8833ZM15.9942 115.339L14.5506 105.783H11.9789L10.5162 110.664C10.4397 110.862 10.4397 111.069 10.3728 111.276C10.3059 111.483 10.3059 111.746 10.239 111.953C10.1721 111.68 10.1721 111.473 10.0956 111.201C10.0197 111.031 9.97441 110.849 9.96173 110.664L8.51813 105.783H5.98467L4.54108 115.339H6.95025L7.50475 111.201C7.50475 110.862 7.57167 110.599 7.57167 110.185C7.57167 109.771 7.63859 109.508 7.70551 109.103C7.78199 109.508 7.84892 109.846 7.91584 110.119C7.96085 110.351 8.03137 110.579 8.12616 110.796L9.42635 115.339H11.0803L12.4283 110.796C12.5143 110.576 12.5846 110.349 12.6386 110.119C12.7087 109.849 12.7756 109.511 12.8394 109.103C12.9063 109.508 12.9063 109.846 12.9828 110.185C13.0592 110.523 13.0497 110.862 13.0497 111.201L13.5946 115.339H15.9942ZM21.5774 109.169C21.5774 109.583 21.5009 109.846 21.2332 109.987C20.8571 110.201 20.4233 110.296 19.9904 110.26H19.5124V107.814H20.0764C20.3808 107.824 20.6828 107.871 20.9751 107.955C21.1789 108.029 21.3487 108.173 21.4531 108.36C21.5814 108.61 21.6313 108.891 21.5965 109.169H21.5774ZM24.5984 115.339L21.9885 111.473C22.6024 111.334 23.1465 110.986 23.5245 110.49C23.9024 109.995 24.0899 109.383 24.0535 108.764C24.077 108.318 23.9814 107.874 23.7763 107.476C23.6304 107.072 23.3679 106.719 23.021 106.46C22.7441 106.264 22.4419 106.106 22.1223 105.99C21.7851 105.903 21.4382 105.859 21.0898 105.858C20.7047 105.793 20.3139 105.768 19.9235 105.783H17.0554V115.339H19.4646V111.577L21.6634 115.339H24.5984ZM32.1032 110.523C32.0961 110.912 32.0513 111.3 31.9694 111.68C31.852 112.008 31.6627 112.307 31.4149 112.555C31.199 112.798 30.9438 113.005 30.6596 113.167C30.3616 113.308 30.0343 113.378 29.7036 113.373C29.3476 113.386 28.9936 113.315 28.6711 113.167C28.3538 113.026 28.0728 112.817 27.8489 112.555C27.6453 112.288 27.4812 111.993 27.3613 111.68C27.2794 111.3 27.2346 110.912 27.2275 110.523C27.2344 110.181 27.2793 109.84 27.3613 109.508C27.5063 109.193 27.6927 108.899 27.9158 108.633C28.1153 108.373 28.374 108.164 28.6711 108.021C28.995 107.877 29.348 107.806 29.7036 107.814C30.0338 107.814 30.3601 107.885 30.6596 108.021C30.9583 108.161 31.2176 108.371 31.4149 108.633C31.638 108.899 31.8245 109.193 31.9694 109.508C32.0468 109.841 32.0916 110.181 32.1032 110.523ZM34.7227 110.523C34.7228 110.11 34.6516 109.7 34.5124 109.31C34.4118 108.882 34.2509 108.471 34.0344 108.087C33.7988 107.718 33.5196 107.377 33.2026 107.071C32.9271 106.726 32.5735 106.449 32.1701 106.262C31.7894 106.035 31.3725 105.873 30.9369 105.783C30.5357 105.653 30.1163 105.586 29.694 105.585C29.2496 105.582 28.8074 105.649 28.3843 105.783C27.9525 105.885 27.5375 106.047 27.151 106.262C26.7618 106.471 26.4124 106.745 26.1185 107.071C25.6484 107.539 25.2751 108.091 25.0191 108.699C24.7416 109.268 24.5979 109.892 24.5984 110.523C24.598 111.029 24.6688 111.532 24.8088 112.019C24.9449 112.478 25.1547 112.913 25.4302 113.308C25.7024 113.729 26.0526 114.096 26.4627 114.389C26.7533 114.651 27.0742 114.878 27.4187 115.067C27.775 115.209 28.1428 115.323 28.5181 115.405C28.8957 115.518 29.2908 115.562 29.6845 115.537C30.1032 115.558 30.5228 115.514 30.9273 115.405C31.3534 115.285 31.7664 115.125 32.1606 114.926C32.5357 114.696 32.8822 114.425 33.1931 114.117C33.5273 113.802 33.8081 113.437 34.0248 113.035C34.2536 112.681 34.4155 112.289 34.5028 111.878C34.6483 111.441 34.7193 110.983 34.7132 110.523H34.7227ZM31.8738 102.528H29.6367L28.4703 104.757H30.1242L31.8451 102.528H31.8738ZM47.3613 105.773L44.6749 115.33H42.3327L41.1663 111.191C41.0156 110.775 40.9005 110.347 40.8221 109.912C40.7457 110.175 40.7457 110.382 40.6787 110.655C40.6102 110.827 40.5652 111.007 40.5449 111.191L39.369 115.33H36.9598L34.3499 105.773H36.8929L37.9923 110.316C38.0767 110.556 38.125 110.806 38.1357 111.06C38.2124 111.278 38.2574 111.506 38.2696 111.737C38.3365 111.464 38.413 111.266 38.4799 110.994C38.4911 110.763 38.5362 110.535 38.6137 110.316L39.7896 105.773H41.8546L43.0879 110.316C43.137 110.634 43.2073 110.948 43.2982 111.257C43.3355 111.389 43.3579 111.525 43.3652 111.662C43.4422 111.395 43.4871 111.12 43.499 110.843C43.5744 110.673 43.6228 110.492 43.6424 110.307L44.7418 105.764L47.3613 105.773ZM55.9655 114.653L52.7246 110.382L56.2332 105.773H53.2122L50.2485 110.11V105.773H47.7055V115.33H50.2485V110.994L53.346 115.33H58.3174L58.8049 113.562H62.4283L62.9158 115.33H65.4589L62.2275 105.773H58.9866L55.9655 114.653Z" fill="white"/>
<path d="M0 97.524C9.14093 86.8275 21.9505 79.7997 36.0038 77.7708C47.2849 76.2094 60.0191 78.307 69.3117 85.1548C64.7818 79.7677 58.9212 75.616 52.292 73.0976C45.6628 70.5792 38.4872 69.7786 31.4532 70.7726C19.2734 72.2588 8.94838 77.3382 0 85.9449V97.524Z" fill="#FCBF00"/>
<path d="M16.3862 23.5156V55.13C16.4568 55.2826 16.5738 55.4097 16.7211 55.494C16.8684 55.5782 17.0387 55.6154 17.2084 55.6003C17.3402 55.6107 17.4728 55.5941 17.5977 55.5515C17.7227 55.5089 17.8373 55.4413 17.9344 55.3529C18.0314 55.2645 18.1088 55.1572 18.1615 55.0379C18.2143 54.9186 18.2413 54.7898 18.2409 54.6597V23.9765C18.2413 23.8464 18.2143 23.7176 18.1615 23.5983C18.1088 23.479 18.0314 23.3717 17.9344 23.2833C17.8373 23.1949 17.7227 23.1273 17.5977 23.0847C17.4728 23.0421 17.3402 23.0255 17.2084 23.0359C17.0415 23.0369 16.8778 23.0808 16.7336 23.1633C16.5894 23.2458 16.4696 23.364 16.3862 23.5062V23.5156ZM11.7686 13.7519H10.2581V14.495H10.9464V15.5109C10.9464 15.9154 10.803 16.1881 10.3919 16.1881C9.98082 16.1881 9.77049 15.9154 9.77049 15.5109V12.5291C9.76484 12.4474 9.77704 12.3654 9.80627 12.2887C9.8355 12.212 9.88109 12.1424 9.93996 12.0844C9.99883 12.0265 10.0696 11.9817 10.1476 11.9529C10.2255 11.9242 10.3088 11.9122 10.3919 11.9177C10.803 11.8519 10.9464 12.1905 10.9464 12.5291V12.8019H11.7686V12.5291C11.7889 12.3402 11.7682 12.1492 11.708 11.9687C11.6479 11.7882 11.5495 11.6223 11.4194 11.4819C11.2894 11.3415 11.1306 11.2297 10.9535 11.1541C10.7764 11.0784 10.585 11.0406 10.3919 11.0429C10.1958 11.04 10.0011 11.0769 9.82019 11.1514C9.63925 11.226 9.47589 11.3364 9.34037 11.476C9.20484 11.6155 9.10006 11.7811 9.0326 11.9623C8.96514 12.1435 8.93644 12.3365 8.94831 12.5291V15.5109C8.91601 15.8625 8.98913 16.2157 9.15864 16.5268C9.31159 16.6997 9.50138 16.8375 9.71453 16.9301C9.92767 17.0228 10.1589 17.0681 10.3919 17.0629C10.6423 17.0729 10.8906 17.0151 11.1098 16.8956C11.3289 16.7762 11.5105 16.5998 11.6347 16.3857C11.7494 16.1087 11.7953 15.8088 11.7686 15.5109V13.7519ZM16.3097 14.495H16.8642L17.6864 16.9971H18.585L17.6864 14.2881C17.9025 14.1666 18.0808 13.9894 18.2021 13.7756C18.3234 13.5618 18.3831 13.3194 18.3747 13.0747V12.5291C18.3811 12.3464 18.3503 12.1643 18.2842 11.9935C18.2181 11.8226 18.1181 11.6665 17.9898 11.5342C17.8616 11.4019 17.7078 11.2961 17.5375 11.2231C17.3672 11.15 17.1838 11.1112 16.998 11.1088H15.4875V16.9971H16.3097V14.495ZM16.3097 13.7519V11.8707H16.9311C17.0182 11.8716 17.1042 11.8903 17.1836 11.9255C17.263 11.9608 17.3341 12.0118 17.3925 12.0755C17.4509 12.1391 17.4952 12.2139 17.5228 12.2952C17.5503 12.3765 17.5604 12.4626 17.5525 12.5479V13.0935C17.5525 13.498 17.3422 13.7707 16.9311 13.7707L16.3097 13.7519ZM24.9139 11.1088H24.0248V15.6426C24.0322 15.716 24.023 15.7902 23.9978 15.8597C23.9726 15.9293 23.9319 15.9924 23.8789 16.0446C23.8258 16.0968 23.7617 16.1368 23.691 16.1616C23.6203 16.1864 23.545 16.1955 23.4703 16.1881C23.1261 16.254 22.9254 15.9812 22.9254 15.6426V11.1088H21.9885V15.6426C22.0292 15.9887 22.1977 16.3081 22.4622 16.5399C22.7266 16.7717 23.0684 16.8997 23.4225 16.8997C23.7766 16.8997 24.1184 16.7717 24.3828 16.5399C24.6473 16.3081 24.8158 15.9887 24.8565 15.6426V11.1088H24.9139ZM29.5315 14.6926H30.0095C30.2095 14.6974 30.4083 14.6605 30.5928 14.5842C30.7772 14.508 30.9432 14.3941 31.0796 14.2501C31.216 14.1061 31.3198 13.9352 31.3842 13.7488C31.4486 13.5624 31.4721 13.3647 31.4531 13.1687V12.3598C31.4382 12.0113 31.2863 11.6821 31.0295 11.4417C30.7727 11.2013 30.4309 11.0684 30.0764 11.0712H28.6806V16.9595H29.5124V14.6926H29.5315ZM29.5315 13.8836V11.8519H30.0764C30.1548 11.8528 30.2321 11.8697 30.3034 11.9017C30.3747 11.9336 30.4385 11.9798 30.4907 12.0373C30.5428 12.0948 30.5822 12.1624 30.6064 12.2358C30.6305 12.3091 30.6389 12.3866 30.6309 12.4633V13.2722C30.6309 13.7519 30.4971 13.8836 30.0095 13.8836H29.5315ZM35.5162 15.7084H36.6156L36.8929 16.9971H37.7915L36.4818 11.1088H35.7265L34.3498 16.9971H35.3059L35.5066 15.7084H35.5162ZM36.4722 14.9653H35.6596L36.0707 12.8019L36.4818 14.9653H36.4722ZM52.868 54.9231V23.2993C52.9502 23.1554 53.0695 23.0353 53.2138 22.9511C53.3581 22.8668 53.5224 22.8215 53.6902 22.8196C53.822 22.8091 53.9546 22.8258 54.0796 22.8683C54.2045 22.9109 54.3192 22.9786 54.4162 23.067C54.5132 23.1554 54.5906 23.2626 54.6433 23.3819C54.6961 23.5013 54.7231 23.6301 54.7227 23.7602V54.4528C54.7231 54.5829 54.6961 54.7117 54.6433 54.831C54.5906 54.9503 54.5132 55.0576 54.4162 55.146C54.3192 55.2344 54.2045 55.302 54.0796 55.3446C53.9546 55.3872 53.822 55.4038 53.6902 55.3934C53.5224 55.3914 53.3581 55.3461 53.2138 55.2619C53.0695 55.1777 52.9502 55.0576 52.868 54.9137V54.9231ZM56.3097 58.5821C57.0571 58.5772 57.7961 58.4272 58.4844 58.1406C59.1727 57.8541 59.7968 57.4367 60.3208 56.9124C60.8449 56.3881 61.2585 55.7671 61.5381 55.0852C61.8178 54.4032 61.9578 53.6737 61.9502 52.9384V25.6602C61.9504 24.1796 61.3592 22.7581 60.3041 21.7024C59.2489 20.6467 57.8144 20.0412 56.3097 20.0165H52.868V11.0429H45.4301V58.5821H56.3097ZM32.9062 19.913H37.9923C39.4876 19.918 40.9203 20.504 41.9786 21.5434C43.0368 22.5828 43.6348 23.9915 43.6424 25.4627V33.6555H36.4149V23.9765C36.4153 23.8464 36.3883 23.7176 36.3355 23.5983C36.2827 23.479 36.2054 23.3717 36.1084 23.2833C36.0113 23.1949 35.8967 23.1273 35.7717 23.0847C35.6468 23.0421 35.5142 23.0255 35.3823 23.0359C35.1288 23.0359 34.8856 23.135 34.7063 23.3114C34.527 23.4878 34.4263 23.7271 34.4263 23.9765V32.301C34.4263 32.3763 34.4932 32.4421 34.5602 32.508L42.9636 41.3122C43.3878 41.7797 43.6314 42.379 43.6519 43.0054V52.7596C43.6521 54.2419 43.0596 55.6647 42.0024 56.7207C40.9452 57.7767 39.5082 58.3811 38.0018 58.4034H32.9062C31.3999 58.3811 29.9629 57.7767 28.9057 56.7207C27.8485 55.6647 27.256 54.2419 27.2562 52.7596V44.8302H34.4168V54.6503C34.4168 55.4686 35.3728 55.5909 35.3728 55.5909C35.5046 55.6013 35.6372 55.5847 35.7622 55.5421C35.8871 55.4995 36.0018 55.4319 36.0988 55.3435C36.1958 55.2551 36.2732 55.1478 36.3259 55.0285C36.3787 54.9092 36.4057 54.7804 36.4053 54.6503V45.7802C36.4154 45.6998 36.4008 45.6183 36.3633 45.5462C36.3258 45.4741 36.2672 45.4147 36.195 45.3757L27.6672 35.7437C27.521 35.5894 27.409 35.4069 27.3383 35.2077C27.2675 35.0086 27.2395 34.7971 27.2562 34.5868V25.4627C27.2637 23.9915 27.8617 22.5828 28.92 21.5434C29.9782 20.504 31.4109 19.918 32.9062 19.913ZM19.8279 19.913C21.3106 19.9352 22.7253 20.5291 23.7676 21.5669C24.81 22.6048 25.3966 24.0037 25.4015 25.4627V52.7408C25.4194 54.2154 24.8431 55.6369 23.7986 56.6945C22.7541 57.7522 21.3265 58.3598 19.8279 58.3846H16.3862V67.3958H8.94831V19.913H19.8279Z" fill="white"/>
</svg>
