<svg width="95" height="18" viewBox="0 0 95 18" fill="none" xmlns="http://www.w3.org/2000/svg">
<path d="M95 0H0V17.8125H95V0Z" fill="#154F98"/>
<path d="M29.136 0C26.2996 2.31903 24.44 5.57861 23.9138 9.15365C23.5067 12.0329 24.0513 15.2649 25.8819 17.6335C24.4449 16.4869 23.3368 14.9964 22.6654 13.3074C21.994 11.6183 21.7823 9.78831 22.0508 7.99562C22.4391 4.90844 23.7978 2.27394 26.0706 0H29.136Z" fill="#FFBF00"/>
<path d="M87.5453 10.1748H85.313L86.1487 7.44822C86.1676 7.39032 86.1865 7.25873 86.2458 7.08766C86.3051 6.91659 86.3617 6.65077 86.4399 6.3481C86.5747 6.95343 86.6718 7.33242 86.7095 7.44822L87.5453 10.1748ZM47.7707 13.2462L46.509 5.02164H44.2956L43.0554 9.24842C43.0149 9.39844 42.9583 9.56951 42.9179 9.75901C42.8775 9.9485 42.8397 10.138 42.802 10.3854C42.7642 10.138 42.7238 9.91165 42.686 9.74058C42.6483 9.56951 42.589 9.39844 42.5485 9.26685L41.3084 5.02164H39.1138L37.8521 13.2462H39.901L40.3863 9.68268C40.4339 9.40647 40.4663 9.12797 40.4834 8.84838C40.5238 8.54571 40.5427 8.2062 40.5804 7.84564C40.6264 8.15877 40.6912 8.46898 40.7745 8.77469C40.8339 9.01945 40.912 9.22737 40.9498 9.38002L42.0579 13.2462H43.5353L44.6595 9.38002C44.7 9.22737 44.7566 9.01945 44.8348 8.77469C44.9181 8.46898 44.9829 8.15877 45.0289 7.84564C45.0478 8.2062 45.0882 8.54571 45.1071 8.84838C45.1241 9.12797 45.1565 9.40647 45.2041 9.68268L45.6705 13.2462H47.7707ZM52.6047 7.89564C52.6183 8.04137 52.5954 8.18813 52.5381 8.32334C52.4808 8.45856 52.3908 8.57821 52.2758 8.67204C51.9619 8.8608 51.5947 8.94742 51.2271 8.91944H50.82V6.74551H51.2648C51.5249 6.73123 51.7854 6.76425 52.0332 6.84289C52.2212 6.90786 52.3797 7.03555 52.4807 7.20346C52.5831 7.41617 52.6294 7.65048 52.6155 7.88511L52.6047 7.89564ZM55.2064 13.2594L52.9741 9.94324C53.506 9.84673 53.9846 9.56644 54.3221 9.15367C54.6511 8.70157 54.8153 8.15483 54.7885 7.60087C54.7961 7.20378 54.7161 6.80973 54.554 6.44548C54.4025 6.11116 54.1692 5.81832 53.8746 5.59275C53.6481 5.42197 53.3913 5.29348 53.117 5.21376C52.8287 5.1209 52.5281 5.06948 52.2246 5.06112C51.8756 5.03582 51.5255 5.02967 51.1758 5.04269H48.7117V13.2462H50.8092V10.0248L52.6721 13.2462L55.2064 13.2594ZM61.7389 9.15367C61.7387 9.46873 61.6859 9.78165 61.5825 10.0801C61.4908 10.3701 61.3394 10.6387 61.1377 10.8697C60.9642 11.0906 60.7372 11.266 60.4771 11.3802C60.2051 11.5091 59.906 11.574 59.6036 11.5697C59.3009 11.5782 59.0007 11.5131 58.7301 11.3802C58.4615 11.2715 58.2271 11.0953 58.0507 10.8697C57.857 10.6482 57.712 10.3902 57.6247 10.1117C57.5228 9.80562 57.4701 9.48601 57.4684 9.1642C57.4681 8.84224 57.5209 8.52233 57.6247 8.21673C57.7165 7.92675 57.8678 7.65809 58.0696 7.42717C58.2536 7.21659 58.478 7.04314 58.7301 6.91659C59.0051 6.79624 59.3023 6.73176 59.6036 6.72709C59.8991 6.72967 60.1906 6.7943 60.4583 6.91659C60.7161 7.04277 60.9467 7.2161 61.1377 7.42717C61.3279 7.66566 61.478 7.93218 61.5825 8.21673C61.6863 8.52233 61.7391 8.84224 61.7389 9.1642V9.15367ZM63.9712 9.15367C63.9698 8.76967 63.9173 8.38747 63.8148 8.01671C63.7222 7.65778 63.5789 7.31321 63.3888 6.99291C63.2086 6.6596 62.9726 6.35805 62.6906 6.10071C62.4212 5.83162 62.1134 5.60202 61.7766 5.41905C61.4499 5.22823 61.098 5.08211 60.7306 4.98479C59.9937 4.78123 59.2135 4.78123 58.4767 4.98479C58.1074 5.08165 57.7536 5.22778 57.4252 5.41905C57.0885 5.60202 56.7806 5.83162 56.5113 6.10071C56.1049 6.4974 55.7816 6.96762 55.5596 7.48507C55.3407 8.01536 55.229 8.58197 55.2307 9.15367C55.2261 9.57786 55.2917 9.99999 55.4248 10.4038C55.5393 10.8064 55.7156 11.1897 55.9478 11.5408C56.1981 11.8848 56.4916 12.1969 56.8213 12.4698C57.0821 12.6801 57.3693 12.857 57.676 12.9962C57.9702 13.1497 58.2838 13.2647 58.6088 13.3383C58.933 13.4136 59.265 13.4516 59.5982 13.4515C59.9781 13.4556 60.357 13.4114 60.7252 13.3199C61.0869 13.2164 61.4359 13.0743 61.7658 12.8962C62.099 12.708 62.4062 12.4789 62.6798 12.2145C62.9466 11.9421 63.1808 11.641 63.3781 11.3171C63.5723 10.9885 63.7159 10.6338 63.804 10.2643C63.905 9.90045 63.9576 9.52539 63.9604 9.14841L63.9712 9.15367ZM61.5528 2.21606H59.6306L58.6223 4.15049H60.0592L61.5528 2.21606ZM74.9279 5.02164L72.6174 13.2462H70.5603L69.5574 9.73795C69.498 9.53003 69.401 9.15104 69.2878 8.61941C69.2284 8.84575 69.1907 9.03524 69.1503 9.22474C69.1098 9.41423 69.0532 9.56688 69.0155 9.73795L68.026 13.2436H65.9689L63.6584 5.01901H65.9096L66.8613 8.94839C66.8991 9.15894 66.9395 9.36686 66.9961 9.57477C67.0527 9.78269 67.0743 9.99061 67.0932 10.1801C67.1525 9.97219 67.1902 9.76427 67.2307 9.55635C67.2711 9.34843 67.3466 9.15894 67.3844 8.94839L68.3954 5.0269H70.1801L71.21 8.92997C71.3071 9.29053 71.3826 9.5932 71.423 9.78269C71.4635 9.97219 71.4796 10.1064 71.4796 10.1433C71.5389 9.88007 71.5767 9.6511 71.6171 9.44318C71.6576 9.23526 71.6953 9.08261 71.7331 8.91681L72.6848 5.01374L74.9279 5.02164ZM82.4012 12.6541L79.5866 9.03787L82.5954 5.02164H80.0126L77.4325 8.75363V5.02164H75.219V13.2462H77.4325V9.56162L80.0907 13.2462H84.4206L84.8465 11.7671H88.0117L88.4296 13.2462H90.643L87.8176 5.02164H85.0218L82.4012 12.6541Z" fill="white"/>
<path d="M4.79344 5.19264V13.3778C4.81907 13.4165 4.85363 13.4488 4.89437 13.4721C4.9351 13.4954 4.98087 13.5091 5.028 13.512C5.09347 13.5076 5.15507 13.4801 5.20123 13.4345C5.24739 13.389 5.27494 13.3285 5.27873 13.2646V5.32423C5.27431 5.26073 5.24648 5.20095 5.20038 5.15595C5.15428 5.11095 5.09304 5.08377 5.028 5.07947C4.98318 5.08226 4.93937 5.0937 4.89911 5.11312C4.85885 5.13255 4.82293 5.15957 4.79344 5.19264ZM3.60989 2.6713H3.23514V2.8608H3.41038V3.1582C3.41038 3.25295 3.37263 3.32927 3.25401 3.32927C3.13538 3.32927 3.10034 3.25295 3.10034 3.1582V2.36864C3.0957 2.32863 3.10716 2.28842 3.13231 2.2565C3.15746 2.22459 3.19433 2.20345 3.23514 2.19757C3.35376 2.19757 3.39151 2.27389 3.39151 2.36864V2.42654H3.60449V2.36864C3.60886 2.31888 3.60259 2.26877 3.58608 2.2215C3.56957 2.17423 3.54318 2.13082 3.50858 2.09403C3.47398 2.05723 3.43193 2.02786 3.38509 2.00777C3.33825 1.98767 3.28765 1.97729 3.23649 1.97729C3.18532 1.97729 3.13472 1.98767 3.08788 2.00777C3.04104 2.02786 2.99899 2.05723 2.96439 2.09403C2.92979 2.13082 2.9034 2.17423 2.88689 2.2215C2.87038 2.26877 2.86411 2.31888 2.86848 2.36864V3.1582C2.85792 3.24455 2.8779 3.33184 2.92509 3.4056C2.96218 3.45144 3.00923 3.48867 3.06285 3.51461C3.11646 3.54055 3.17531 3.55456 3.23514 3.55561C3.30055 3.55755 3.36538 3.54308 3.42343 3.51359C3.48149 3.4841 3.53083 3.44058 3.56675 3.38717C3.59754 3.31479 3.61047 3.23636 3.60449 3.1582V2.68446L3.60989 2.6713ZM4.79344 2.8608H4.93094L5.14393 3.52403H5.37578L5.14393 2.82395C5.20551 2.79486 5.25684 2.74855 5.29141 2.69091C5.32597 2.63327 5.3422 2.5669 5.33804 2.50023V2.36864C5.33953 2.32089 5.331 2.27335 5.31297 2.22895C5.29494 2.18454 5.26778 2.14421 5.23318 2.11043C5.19858 2.07666 5.15727 2.05015 5.11178 2.03255C5.06629 2.01494 5.01759 2.00661 4.96868 2.00807H4.58315V3.52403H4.79614V2.8608H4.79344ZM4.79344 2.6713V2.19757H4.94981C4.97191 2.19782 4.99371 2.20257 5.01382 2.2115C5.03393 2.22043 5.05192 2.23336 5.06663 2.24945C5.08134 2.26555 5.09245 2.28446 5.09926 2.30498C5.10607 2.3255 5.10843 2.34718 5.10618 2.36864V2.50023C5.10618 2.61603 5.06574 2.6713 4.94981 2.6713H4.79344ZM7.02575 2.00807H6.7939V3.1582C6.7939 3.23452 6.75615 3.31085 6.6591 3.31085C6.56204 3.31085 6.5216 3.25295 6.5216 3.1582V2.00807H6.28974V3.1582C6.28756 3.20699 6.29549 3.2557 6.31304 3.30143C6.33059 3.34716 6.35741 3.38896 6.39189 3.42434C6.42637 3.45972 6.4678 3.48795 6.51372 3.50734C6.55963 3.52673 6.60907 3.53688 6.6591 3.53719C6.75874 3.53309 6.85281 3.49119 6.92129 3.4204C6.98977 3.34962 7.02725 3.25555 7.02575 3.1582V2.00807ZM8.23088 2.9187H8.35759C8.40697 2.92049 8.4562 2.91245 8.50229 2.89507C8.54838 2.87768 8.59036 2.85132 8.62568 2.81759C8.66099 2.78385 8.6889 2.74345 8.7077 2.69884C8.7265 2.65424 8.7358 2.60636 8.73504 2.55813V2.33179C8.73153 2.24383 8.69289 2.1607 8.62738 2.1002C8.56188 2.0397 8.47472 2.00663 8.38455 2.00807H8.01789V3.52403H8.23088V2.9187ZM8.23088 2.71078V2.18441H8.35759C8.37854 2.18283 8.39959 2.18569 8.4193 2.1928C8.439 2.19992 8.4569 2.21111 8.47176 2.22561C8.48661 2.24011 8.49808 2.25758 8.50536 2.27682C8.51265 2.29606 8.51558 2.31661 8.51396 2.33706V2.54497C8.51396 2.65814 8.47352 2.69762 8.33872 2.69762L8.23088 2.71078ZM9.78379 3.20294L10.075 3.18452L10.1531 3.52403H10.385L10.0345 2.00807H9.84041L9.49262 3.52403H9.72448L9.78379 3.20294ZM10.0534 2.99502H9.83771L9.93477 2.44496L10.0534 2.99502ZM14.305 13.3225V5.16369C14.3288 5.12352 14.363 5.0902 14.4042 5.06709C14.4454 5.04398 14.4921 5.03191 14.5396 5.03209C14.6051 5.03647 14.6667 5.06401 14.7128 5.10956C14.759 5.15511 14.7865 5.21552 14.7903 5.27949V13.2067C14.7865 13.2706 14.759 13.3311 14.7128 13.3766C14.6667 13.4222 14.6051 13.4497 14.5396 13.4541C14.4921 13.4543 14.4454 13.4422 14.4042 13.4191C14.363 13.396 14.3288 13.3626 14.305 13.3225ZM15.2001 14.27C15.3954 14.2693 15.5886 14.2309 15.7686 14.157C15.9487 14.0831 16.1119 13.9751 16.249 13.8393C16.3861 13.7035 16.4943 13.5426 16.5674 13.3658C16.6405 13.1891 16.677 12.9999 16.6748 12.8093V5.76112C16.6763 5.37693 16.5221 5.00776 16.2458 4.73413C15.9695 4.4605 15.5937 4.3046 15.2001 4.30043H14.305V1.98965H12.3639V14.27H15.2001ZM9.10439 4.26885H10.4524C10.6461 4.27125 10.8374 4.31088 11.0153 4.38545C11.1933 4.46003 11.3545 4.5681 11.4897 4.7035C11.6249 4.8389 11.7314 4.99896 11.8033 5.17456C11.8751 5.35016 11.9108 5.53785 11.9083 5.72691V7.8324H10.021V5.32423C10.0146 5.26335 9.98524 5.20697 9.93868 5.16599C9.89213 5.125 9.83166 5.10232 9.76897 5.10232C9.70627 5.10232 9.6458 5.125 9.59925 5.16599C9.55269 5.20697 9.52334 5.26335 9.51689 5.32423V7.46657C9.51567 7.47657 9.51673 7.48671 9.52 7.49627C9.52326 7.50582 9.52864 7.51455 9.53576 7.52184L11.7303 9.81683C11.8444 9.93871 11.9054 10.0992 11.9002 10.2643V12.7856C11.8974 13.1622 11.7433 13.5226 11.471 13.7894C11.1987 14.0561 10.8301 14.2079 10.4443 14.2121H9.09631C8.70824 14.2079 8.33756 14.0543 8.06491 13.7847C7.79227 13.5151 7.63972 13.1513 7.64045 12.7724V10.7248H9.50341V13.2646C9.50341 13.4725 9.75683 13.512 9.75683 13.512C9.82231 13.5076 9.8839 13.4801 9.93006 13.4345C9.97622 13.389 10.0038 13.3285 10.0076 13.2646V10.9538C10.0074 10.9188 9.99394 10.885 9.96982 10.8591L7.73751 8.37457C7.66698 8.28936 7.63229 8.18116 7.64045 8.0719V5.72164C7.63796 5.53258 7.67364 5.34489 7.74545 5.1693C7.81727 4.9937 7.92382 4.83363 8.05901 4.69824C8.1942 4.56284 8.35539 4.45477 8.53337 4.38019C8.71135 4.30561 8.90264 4.26599 9.09631 4.26359L9.10439 4.26885ZM5.68852 4.26885C5.88358 4.26953 6.07658 4.30785 6.25641 4.3816C6.43625 4.45534 6.59938 4.56306 6.73643 4.69856C6.87348 4.83405 6.98174 4.99466 7.05499 5.17114C7.12824 5.34762 7.16503 5.5365 7.16325 5.72691V12.7724C7.16325 13.1542 7.00788 13.5204 6.73131 13.7904C6.45475 14.0604 6.07965 14.2121 5.68852 14.2121L4.79344 14.2305V16.5439H2.87387V4.26359L5.68852 4.26885Z" fill="white"/>
</svg>
