<svg width="26" height="25" viewBox="0 0 26 25" fill="none" xmlns="http://www.w3.org/2000/svg">
<path d="M2.63109 12.3131C2.63109 8.44341 2.63109 6.50857 3.83325 5.30641C5.03541 4.10425 6.97025 4.10425 10.8399 4.10425H14.9444C18.8141 4.10425 20.7489 4.10425 21.9511 5.30641C23.1532 6.50857 23.1532 8.44341 23.1532 12.3131C23.1532 16.1828 23.1532 18.1176 21.9511 19.3198C20.7489 20.522 18.8141 20.522 14.9444 20.522H10.8399C6.97025 20.522 5.03541 20.522 3.83325 19.3198C2.63109 18.1176 2.63109 16.1828 2.63109 12.3131Z" stroke="black" stroke-opacity="0.8" stroke-width="1.42076"/>
<path d="M6.73555 8.20898L8.95081 10.055C10.8354 11.6255 11.7777 12.4108 12.8922 12.4108C14.0067 12.4108 14.949 11.6255 16.8336 10.055L19.0488 8.20898" stroke="black" stroke-opacity="0.8" stroke-width="1.42076" stroke-linecap="round"/>
</svg>
