<svg width="22" height="22" viewBox="0 0 22 22" fill="none" xmlns="http://www.w3.org/2000/svg">
<path fill-rule="evenodd" clip-rule="evenodd" d="M12.5146 11.1004L20.9998 2.61522L19.5856 1.20101L11.1004 9.68621L2.61522 1.201L1.20101 2.61522L9.68622 11.1004L1.20086 19.5858L2.61507 21L11.1004 12.5146L19.5858 21L21 19.5858L12.5146 11.1004Z" fill="#154F98"/>
<path d="M20.9998 2.61522L21.3534 2.96878L21.707 2.61522L21.3534 2.26167L20.9998 2.61522ZM12.5146 11.1004L12.1611 10.7469L11.8075 11.1004L12.1611 11.454L12.5146 11.1004ZM19.5856 1.20101L19.9392 0.847458L19.5856 0.493904L19.2321 0.847458L19.5856 1.20101ZM11.1004 9.68621L10.7469 10.0398L11.1004 10.3933L11.454 10.0398L11.1004 9.68621ZM2.61522 1.201L2.96878 0.847448L2.61522 0.493894L2.26167 0.847448L2.61522 1.201ZM1.20101 2.61522L0.847456 2.26166L0.493904 2.61522L0.847456 2.96877L1.20101 2.61522ZM9.68622 11.1004L10.0398 11.454L10.3933 11.1004L10.0398 10.7469L9.68622 11.1004ZM1.20086 19.5858L0.847305 19.2322L0.493751 19.5858L0.847305 19.9393L1.20086 19.5858ZM2.61507 21L2.26152 21.3536L2.61507 21.7071L2.96863 21.3536L2.61507 21ZM11.1004 12.5146L11.454 12.1611L11.1004 11.8075L10.7469 12.1611L11.1004 12.5146ZM19.5858 21L19.2322 21.3535L19.5858 21.7071L19.9393 21.3535L19.5858 21ZM21 19.5858L21.3536 19.9393L21.7071 19.5858L21.3536 19.2322L21 19.5858ZM20.6463 2.26167L12.1611 10.7469L12.8682 11.454L21.3534 2.96878L20.6463 2.26167ZM19.2321 1.55457L20.6463 2.96878L21.3534 2.26167L19.9392 0.847458L19.2321 1.55457ZM11.454 10.0398L19.9392 1.55457L19.2321 0.847458L10.7469 9.33266L11.454 10.0398ZM2.26167 1.55456L10.7469 10.0398L11.454 9.33266L2.96878 0.847448L2.26167 1.55456ZM1.55456 2.96877L2.96878 1.55456L2.26167 0.847448L0.847456 2.26166L1.55456 2.96877ZM10.0398 10.7469L1.55456 2.26166L0.847456 2.96877L9.33267 11.454L10.0398 10.7469ZM1.55441 19.9393L10.0398 11.454L9.33267 10.7469L0.847305 19.2322L1.55441 19.9393ZM2.96863 20.6464L1.55441 19.2322L0.847305 19.9393L2.26152 21.3536L2.96863 20.6464ZM10.7469 12.1611L2.26152 20.6464L2.96863 21.3536L11.454 12.8682L10.7469 12.1611ZM19.9393 20.6464L11.454 12.1611L10.7469 12.8682L19.2322 21.3535L19.9393 20.6464ZM20.6464 19.2322L19.2322 20.6464L19.9393 21.3535L21.3536 19.9393L20.6464 19.2322ZM12.1611 11.454L20.6464 19.9393L21.3536 19.2322L12.8682 10.7469L12.1611 11.454Z" fill="#004996"/>
</svg>
