<svg width="19" height="19" viewBox="0 0 19 19" fill="none" xmlns="http://www.w3.org/2000/svg">
<path d="M7.29967 2.45478L7.96563 3.64807C8.56662 4.72495 8.32536 6.13763 7.37881 7.08419C7.3788 7.08419 7.37881 7.08419 7.3788 7.0842C7.37869 7.08431 6.23076 8.23245 8.31236 10.3141C10.3933 12.395 11.5415 11.2484 11.5422 11.2476C11.5422 11.2476 11.5422 11.2476 11.5423 11.2476C12.4888 10.301 13.9015 10.0598 14.9783 10.6608L16.1716 11.3267C17.7977 12.2342 17.9898 14.5147 16.5605 15.944C15.7016 16.8029 14.6495 17.4711 13.4864 17.5152C11.5284 17.5895 8.20335 17.0939 4.86792 13.7585C1.53248 10.4231 1.03696 7.09797 1.11118 5.14002C1.15528 3.97694 1.82356 2.9248 2.68241 2.06595C4.11173 0.636633 6.39217 0.828674 7.29967 2.45478Z" stroke="black" stroke-opacity="0.8" stroke-width="1.42076" stroke-linecap="round"/>
</svg>
